<svg width="32" height="32" viewBox="0 0 41 53" fill="none" xmlns="http://www.w3.org/2000/svg">
<path d="M40.5345 3.68367C40.5345 1.30531 38.9225 0 36.6963 0C34.317 0 31.9359 1.99487 29.3261 5.21763C27.4835 3.98974 25.1799 3.29838 22.7231 3.29838C15.8914 3.29838 9.59644 8.74646 9.51899 16.4199C9.51899 19.6426 10.9779 22.7898 13.5878 24.8602C8.29062 26.9325 5.75823 28.9274 5.75823 31.2301C5.75823 33.387 8.37167 34.939 11.2499 35.5782C16.1904 36.6746 28.4813 36.5738 28.4813 43.8151C28.4813 49.1101 22.57 51.1824 17.426 51.1824C8.75171 51.1824 5.06659 47.8823 5.06659 43.8925C5.06659 41.8238 6.07883 40.0342 7.81152 38.7757C8.15374 38.5255 8.64364 38.7037 8.76432 39.1106L8.8958 39.5571C9.15516 40.4375 9.85761 41.1415 10.7546 41.3323C12.3738 41.6762 13.8021 40.4519 13.8021 38.8945C13.8021 37.5154 12.7935 36.4046 10.9743 36.4226C9.00027 36.5504 7.64221 36.9393 7.26217 37.0689C2.88181 38.5597 0 40.9992 0 44.3552C0 49.4972 8.06008 52.3365 17.1198 52.3365C26.1795 52.3365 32.089 46.964 32.089 41.8994C32.089 36.8349 28.4039 34.073 20.4969 32.7677C12.9736 31.5398 11.0536 30.6198 11.0536 29.1615C11.0536 27.7031 11.9739 26.7057 14.4307 25.4778C16.1958 26.6283 18.3464 27.3196 20.7257 27.3196C28.3246 27.3196 34.236 21.3332 34.3134 14.1981C34.3134 10.9754 32.7014 7.82824 30.0916 5.75775C31.7036 3.91592 34.1603 2.07409 35.005 2.07409C36.0029 2.07409 35.4661 2.91849 35.3887 3.45501C35.1581 5.5273 36.3865 6.52473 37.8454 6.52473C39.2269 6.52473 40.5327 5.37426 40.5327 3.68547L40.5345 3.68367ZM28.557 11.7406C28.3264 18.4165 25.1799 26.2448 20.1889 26.2448C16.8874 26.2448 15.2754 22.9446 15.3529 18.4183C15.506 11.7424 18.6543 4.45245 23.5678 4.45245C26.8693 4.45245 28.7119 7.82824 28.557 11.7424V11.7406Z" fill="#FFFFFF"/>
</svg>
