<svg width="180" height="78" viewBox="0 0 180 78" fill="none" xmlns="http://www.w3.org/2000/svg">
<path d="M83.0098 14.3289L90.7781 21.4933L91.3061 21.0509L84.1709 8.22705L70.5641 21.2265L71.0922 21.6688L83.0098 14.3289Z" fill="#1D1D1B"/>
<path d="M162.912 60.3136C158.852 60.3136 156.027 56.9526 156.027 48.9058C156.027 47.6676 156.116 46.9608 156.202 45.9005C170.767 43.2463 179.771 38.7384 179.858 31.663C179.946 26.6238 176.503 23.6161 171.209 23.6161C159.291 23.6161 149.142 37.7648 149.142 48.7302C149.142 49.8326 149.217 50.8718 149.361 51.8525C146.322 56.6319 143.829 58.9889 142.217 58.9889C140.806 58.9889 140.364 58.1041 140.364 56.4236C140.364 55.2744 141.159 52.3558 141.778 50.6752L146.28 39.0029C147.163 36.7911 148.31 33.608 148.31 30.7782C148.31 26.7104 146.102 24.1451 141.955 24.1451C135.865 24.1451 130.304 31.9274 126.066 39.5319L125.802 39.4429C126.421 38.2937 127.832 32.9877 127.832 30.7759C127.832 26.708 126.332 24.1428 122.183 24.1428C116.092 24.1428 110.796 30.7759 105.941 39.4406L105.677 39.3517L107.002 35.5483C107.782 33.2475 108.42 31.2346 108.852 29.3341C109.436 26.7595 107.378 24.3441 104.745 24.4915L96.6749 24.9386L96.3222 26.1767H99.2356C102.502 26.1767 103.296 26.8836 103.296 28.4751C103.296 29.182 103.121 29.9778 102.766 31.127L96.7357 50.7712C93.3947 56.2715 90.6519 58.9842 88.9253 58.9842C87.5119 58.9842 87.1591 58.0995 87.1591 56.419C87.1591 55.2697 87.7782 52.8824 88.395 50.7595L96.1633 23.9649H94.5746C93.9998 25.1164 92.9298 26.6027 91.7967 28.0304C90.1589 30.0948 86.9979 29.8514 85.6101 27.6138C84.1219 25.2124 82.0075 23.9649 79.038 23.9649C69.9473 23.9649 60.1488 36.5219 60.1488 49.6969C60.1488 51.45 60.3193 53.0252 60.6371 54.4225C58.3919 57.4722 56.5368 58.9819 55.2495 58.9819C53.8384 58.9819 53.308 58.0971 53.308 56.4166C53.308 55.2674 53.9248 52.7911 54.7192 50.0503L68.931 0L54.9832 1.32709L54.6304 2.56524H57.191C59.838 2.56524 60.9875 2.91867 60.9875 4.68812C60.9875 5.48391 60.7235 6.54418 60.3684 7.78233L48.098 50.7595C47.3924 53.3247 47.0396 54.9163 47.0396 56.8613C47.0396 60.1334 48.8924 62.4318 52.4249 62.4318C55.6257 62.4318 58.5577 60.0608 61.1908 56.3089C62.6907 60.3604 65.6952 62.4318 69.417 62.4318C74.2719 62.4318 78.5964 58.1884 81.6874 53.0579H81.8626C81.6874 53.5892 81.3323 55.4453 81.3323 56.8613C81.3323 60.5758 82.5682 62.4318 86.0984 62.4318C89.423 62.4318 92.4602 59.8736 95.1727 55.8619L93.32 61.9005H99.6748L103.469 48.9011C105.941 40.323 114.151 27.0591 119.711 27.0591C122.005 27.0591 122.272 28.3862 122.272 30.5067C122.272 32.6273 120.947 36.873 120.33 38.9959L113.268 61.8982H119.358L122.625 51.5529C126.774 38.378 135.07 27.0591 139.483 27.0591C141.778 27.0591 142.219 28.3862 142.219 30.5067C142.219 32.6273 140.719 36.7841 139.925 38.907L135.512 50.4903C134.629 52.6998 134.012 54.9116 134.012 56.8566C134.012 60.1287 135.865 62.4272 139.397 62.4272C143.264 62.4272 146.738 58.9678 149.768 53.7905C151.296 59.5038 155.508 62.6027 160.884 62.6027C167.858 62.6027 172.802 58.6238 177.39 52.5219L176.419 51.7262C172.447 57.1211 167.592 60.3043 162.912 60.3043V60.3136ZM169.622 25.1188C171.652 25.1188 173.86 26.7104 173.771 31.3095C173.594 39.4453 168.033 41.9216 156.382 44.5734C157.529 33.8724 164.503 25.1188 169.622 25.1188ZM83.8929 44.749C81.0683 52.9737 75.419 60.3136 71.0057 60.3136C68.3586 60.3136 66.8564 58.1018 66.8564 53.0626C66.8564 50.5863 67.1204 46.5184 67.8283 42.8929C69.5058 34.4037 73.8303 25.7367 80.0099 25.7367C83.2761 25.7367 85.7479 29.0977 85.7479 35.1106C85.7479 38.1182 85.0424 41.4769 83.8952 44.749H83.8929Z" fill="#1D1D1B"/>
<path d="M52.5791 14.6331C52.5791 11.5413 50.4881 9.84436 47.6004 9.84436C44.5141 9.84436 41.4254 12.4377 38.0401 16.6273C35.65 15.031 32.6619 14.1322 29.4751 14.1322C20.6134 14.1322 12.448 21.2148 12.3475 31.1902C12.3475 35.3798 14.2399 39.471 17.6253 42.1627C10.7541 44.8566 7.46924 47.45 7.46924 50.4435C7.46924 53.2475 10.8593 55.2651 14.5927 56.096C21.0013 57.5214 36.9444 57.3903 36.9444 66.804C36.9444 73.6875 29.2765 76.3815 22.604 76.3815C11.3522 76.3815 6.57209 72.0913 6.57209 66.9046C6.57209 64.2153 7.88511 61.8888 10.1327 60.2528C10.5766 59.9274 11.212 60.1592 11.3686 60.6881L11.5391 61.2686C11.8756 62.4131 12.7867 63.3283 13.9502 63.5764C16.0506 64.0234 17.9033 62.4318 17.9033 60.4073C17.9033 58.6144 16.5949 57.1703 14.2353 57.1937C11.6746 57.3599 9.91304 57.8654 9.42008 58.0339C3.73813 59.9719 0 63.1434 0 67.5061C0 74.1908 10.4551 77.8818 22.2068 77.8818C33.9585 77.8818 41.624 70.8976 41.624 64.3136C41.624 57.7297 36.8439 54.1393 26.5874 52.4424C16.8286 50.8461 14.338 49.6501 14.338 47.7542C14.338 45.8584 15.5319 44.5617 18.7187 42.9655C21.0083 44.4611 23.7978 45.3599 26.8841 45.3599C36.7411 45.3599 44.4089 37.5775 44.5094 28.3019C44.5094 24.1124 42.4184 20.0211 39.033 17.3294C41.1241 14.9351 44.3108 12.5407 45.4065 12.5407C46.7009 12.5407 46.0046 13.6384 45.9042 14.3359C45.6051 17.0298 47.1985 18.3265 49.0909 18.3265C50.8829 18.3265 52.5767 16.8309 52.5767 14.6355L52.5791 14.6331ZM37.0425 25.1071C36.7434 33.7858 32.6619 43.9626 26.1879 43.9626C21.9054 43.9626 19.8144 39.6723 19.9149 33.7882C20.1135 25.1094 24.1974 15.6325 30.5709 15.6325C34.8534 15.6325 37.2434 20.0211 37.0425 25.1094V25.1071Z" fill="#1D1D1B"/>
</svg>
